# xmcd
#
# Track frame offsets:
#	150
#	17150
#	31522
#	44065
#	67195
#	86720
#	108037
#	133370
#	150302
#
# Disc length: 2253 seconds
#
# Revision: 2
# Processed by: cddbd v1.5.2PL0 Copyright (c) Steve Scherf et al.
# Submitted via: audiograbber 1.83.01
#
DISCID=7108cb09
DTITLE=Sam Cooke - Live at the Harlem Square Club
DYEAR=1963
DGENRE=Soul
TTITLE0=Feel It
TTITLE1=Chain Gang
TTITLE2=Cupid
TTITLE3=Medley: It's All Right - For Sentimental Reasons
TTITLE4=Twistin' the Night Away
TTITLE5=Somebody Have Mercy
TTITLE6=Bring It on Home
TTITLE7=Nothing Can Change This Love
TTITLE8=Having a Party
EXTD=YEAR: 1963
EXTT0=
EXTT1=
EXTT2=
EXTT3=
EXTT4=
EXTT5=
EXTT6=
EXTT7=
EXTT8=
PLAYORDER=
